<svg id="visual" viewBox="0 0 1600 200" width="1600" height="200" xmlns="http://www.w3.org/2000/svg" xmlns:xlink="http://www.w3.org/1999/xlink" version="1.1"><path d="M0 110L33.3 109.3C66.7 108.7 133.3 107.3 200 106.2C266.7 105 333.3 104 400 100C466.7 96 533.3 89 600 87C666.7 85 733.3 88 800 93.5C866.7 99 933.3 107 1000 106.8C1066.7 106.7 1133.3 98.3 1200 96.7C1266.7 95 1333.3 100 1400 104.5C1466.7 109 1533.3 113 1566.7 115L1600 117L1600 201L1566.7 201C1533.3 201 1466.7 201 1400 201C1333.3 201 1266.7 201 1200 201C1133.3 201 1066.7 201 1000 201C933.3 201 866.7 201 800 201C733.3 201 666.7 201 600 201C533.3 201 466.7 201 400 201C333.3 201 266.7 201 200 201C133.3 201 66.7 201 33.3 201L0 201Z" fill="#143935"></path><path d="M0 117L33.3 117.7C66.7 118.3 133.3 119.7 200 120.8C266.7 122 333.3 123 400 122C466.7 121 533.3 118 600 120.8C666.7 123.7 733.3 132.3 800 138C866.7 143.7 933.3 146.3 1000 147.3C1066.7 148.3 1133.3 147.7 1200 145C1266.7 142.3 1333.3 137.7 1400 134.3C1466.7 131 1533.3 129 1566.7 128L1600 127L1600 201L1566.7 201C1533.3 201 1466.7 201 1400 201C1333.3 201 1266.7 201 1200 201C1133.3 201 1066.7 201 1000 201C933.3 201 866.7 201 800 201C733.3 201 666.7 201 600 201C533.3 201 466.7 201 400 201C333.3 201 266.7 201 200 201C133.3 201 66.7 201 33.3 201L0 201Z" fill="#878c7f"></path><path d="M0 152L33.3 152.5C66.7 153 133.3 154 200 157.7C266.7 161.3 333.3 167.7 400 167.3C466.7 167 533.3 160 600 156.3C666.7 152.7 733.3 152.3 800 152.2C866.7 152 933.3 152 1000 155.5C1066.7 159 1133.3 166 1200 165.8C1266.7 165.7 1333.3 158.3 1400 156.7C1466.7 155 1533.3 159 1566.7 161L1600 163L1600 201L1566.7 201C1533.3 201 1466.7 201 1400 201C1333.3 201 1266.7 201 1200 201C1133.3 201 1066.7 201 1000 201C933.3 201 866.7 201 800 201C733.3 201 666.7 201 600 201C533.3 201 466.7 201 400 201C333.3 201 266.7 201 200 201C133.3 201 66.7 201 33.3 201L0 201Z" fill="#f0edeb"></path></svg>