<svg id="visual" viewBox="0 0 800 400" width="800" height="400" xmlns="http://www.w3.org/2000/svg" xmlns:xlink="http://www.w3.org/1999/xlink" version="1.1"><path d="M0 191L33.3 184C66.7 177 133.3 163 200 164C266.7 165 333.3 181 400 180.3C466.7 179.7 533.3 162.3 600 158.3C666.7 154.3 733.3 163.7 766.7 168.3L800 173L800 401L766.7 401C733.3 401 666.7 401 600 401C533.3 401 466.7 401 400 401C333.3 401 266.7 401 200 401C133.3 401 66.7 401 33.3 401L0 401Z" fill="#143935"></path><path d="M0 213L33.3 217.2C66.7 221.3 133.3 229.7 200 233.7C266.7 237.7 333.3 237.3 400 239.2C466.7 241 533.3 245 600 241.8C666.7 238.7 733.3 228.3 766.7 223.2L800 218L800 401L766.7 401C733.3 401 666.7 401 600 401C533.3 401 466.7 401 400 401C333.3 401 266.7 401 200 401C133.3 401 66.7 401 33.3 401L0 401Z" fill="#878c7f"></path><path d="M0 319L33.3 317.5C66.7 316 133.3 313 200 313C266.7 313 333.3 316 400 319.5C466.7 323 533.3 327 600 321.2C666.7 315.3 733.3 299.7 766.7 291.8L800 284L800 401L766.7 401C733.3 401 666.7 401 600 401C533.3 401 466.7 401 400 401C333.3 401 266.7 401 200 401C133.3 401 66.7 401 33.3 401L0 401Z" fill="#f0edeb"></path></svg>